<svg version="1.1" xmlns="http://www.w3.org/2000/svg" xmlns:xlink="http://www.w3.org/1999/xlink" x="0px" y="0px"
	 viewBox="0 0 512 512" style="enable-background:new 0 0 512 512;" xml:space="preserve">
    <style>
        path {
            fill: #000000;
        }
        @media (prefers-color-scheme: dark) {
            path {
                fill: #ffffff;
            }
        }
    </style>

    <path d="M1,36.4l54.2,0.1l54.3,0.1v175.1V387h66.5l66.5,0.1l-12.1,11.7c-6.7,6.4-20.1,19.3-30,28.7c-9.8,9.3-22.1,21.1-27.4,26.1
        c-5.2,5.1-12.6,12.1-16.3,15.6l-6.8,6.5H75.4H1V256V36.4z"/>
    <path d="M130.2,36.4h56.4h56.3L252.9,62c11.4,28.6,11.6,29.2,13,32.3c0.5,1.3,9.8,24.6,20.6,51.8c36.2,91.3,42.1,106.3,58.9,148.5
        c9.2,23.1,24.1,60.7,33.1,83.5c9.1,22.8,16.9,42.4,17.4,43.5c1.4,2.9,21,53.1,21,53.7c0,0.3-25.3,0.5-56.2,0.4l-56.2-0.1l-3.7-9
        c-2-5-10.4-26.3-18.8-47.5c-8.4-21.2-15.6-39.4-16.1-40.5s-9.2-22.9-19.4-48.5c-39.8-100.5-57.7-145.6-59.1-148.7
        c-0.8-1.7-1.5-3.3-1.5-3.6s-12-30.6-26.6-67.4C144.8,73.7,132.2,42,131.5,40L130.2,36.4z"/>
    <path d="M402.2,36.4h53.9c29.6,0,53.9,0.3,53.9,0.6c0.1,0.3,0.2,57.5,0.3,126.9l0.1,126.4L496,303.8c-7.9,7.6-16,15.2-18,17.1
        c-2,1.8-7.2,6.8-11.6,11c-18,17-55.7,52.5-58.5,55.1c-0.9,0.8-2.5,2.3-3.7,3.3l-2,1.7V214.2V36.4z"/>
</svg>
