<?xml version="1.0" standalone="no"?>
<!DOCTYPE svg PUBLIC "-//W3C//DTD SVG 20010904//EN"
 "http://www.w3.org/TR/2001/REC-SVG-20010904/DTD/svg10.dtd">
<svg version="1.0" xmlns="http://www.w3.org/2000/svg"
 width="512.000000pt" height="512.000000pt" viewBox="0 0 512.000000 512.000000"
 preserveAspectRatio="xMidYMid meet">
<metadata>
Created by potrace 1.14, written by Peter Selinger 2001-2017
</metadata>
<g transform="translate(0.000000,512.000000) scale(0.100000,-0.100000)"
fill="#000000" stroke="none">
<path d="M10 2560 l0 -2197 744 0 745 0 68 65 c37 35 111 105 163 156 53 50
176 168 274 261 99 94 233 223 300 287 l121 117 -665 1 -665 0 0 1753 0 1752
-543 1 -542 1 0 -2197z"/>
<path d="M1315 4721 c7 -20 133 -337 279 -704 146 -368 266 -671 266 -674 0
-3 7 -19 15 -36 14 -31 193 -482 591 -1487 102 -256 189 -474 194 -485 5 -11
77 -193 161 -405 84 -212 168 -425 188 -475 l37 -90 562 -1 c309 -1 562 1 562
4 0 6 -196 508 -210 537 -5 11 -83 207 -174 435 -90 228 -239 604 -331 835
-168 422 -227 572 -589 1485 -108 272 -201 505 -206 518 -14 31 -16 37 -130
323 l-101 256 -563 0 -564 0 13 -36z"/>
<path d="M4023 2978 l0 -1778 20 17 c12 10 28 25 37 33 28 26 405 381 585 551
44 42 96 92 116 110 20 19 101 95 180 171 l144 136 -1 1264 c-1 694 -2 1266
-3 1269 0 3 -243 6 -539 6 l-539 0 0 -1779z"/>
</g>
</svg>
